<svg width="696" height="696" viewBox="0 0 696 696" fill="none" xmlns="http://www.w3.org/2000/svg">
<path d="M348.25 55.5C509.931 55.5 641 186.569 641 348.25C641 509.931 509.931 641 348.25 641C186.569 641 55.5 509.931 55.5 348.25C55.5 186.569 186.569 55.5 348.25 55.5Z" fill="url(#paint0_linear_1_2)" stroke="#296775" stroke-width="67"/>
<path opacity="0.4" d="M174 195.75C186.012 195.75 195.75 186.012 195.75 174C195.75 161.988 186.012 152.25 174 152.25C161.988 152.25 152.25 161.988 152.25 174C152.25 186.012 161.988 195.75 174 195.75Z" fill="white"/>
<path opacity="0.4" d="M522 195.75C534.012 195.75 543.75 186.012 543.75 174C543.75 161.988 534.012 152.25 522 152.25C509.988 152.25 500.25 161.988 500.25 174C500.25 186.012 509.988 195.75 522 195.75Z" fill="white"/>
<path opacity="0.4" d="M174 543.75C186.012 543.75 195.75 534.012 195.75 522C195.75 509.988 186.012 500.25 174 500.25C161.988 500.25 152.25 509.988 152.25 522C152.25 534.012 161.988 543.75 174 543.75Z" fill="white"/>
<path opacity="0.4" d="M522 543.75C534.012 543.75 543.75 534.012 543.75 522C543.75 509.988 534.012 500.25 522 500.25C509.988 500.25 500.25 509.988 500.25 522C500.25 534.012 509.988 543.75 522 543.75Z" fill="white"/>
<path opacity="0.2" d="M348 609C492.146 609 609 492.146 609 348C609 203.854 492.146 87 348 87C203.854 87 87 203.854 87 348C87 492.146 203.854 609 348 609Z" fill="white"/>
<path d="M282.75 217.5V478.5L478.5 348L282.75 217.5Z" fill="#99B6BD"/>
<path d="M348.25 55.5C509.931 55.5 641 186.569 641 348.25C641 509.931 509.931 641 348.25 641C186.569 641 55.5 509.931 55.5 348.25C55.5 186.569 186.569 55.5 348.25 55.5Z" stroke="#296775" stroke-width="67"/>
<g filter="url(#filter0_d_1_2)">
<path d="M199.653 307V278H262.253V307H199.653ZM199.653 361.8V334.6H260.253V361.8H199.653ZM177.253 278H209.653V418H177.253V278Z" fill="#296775"/>
<path d="M358.545 278H400.345L356.345 346.2L403.345 418H361.545L335.945 371.4L309.545 418H267.745L315.745 346.2L272.745 278H314.545L336.145 318.6L358.545 278ZM453.855 354.6H488.855L532.655 418H493.055L453.855 354.6ZM418.855 278H452.655V418H418.855V278ZM440.055 306.6V278H469.855C481.855 278 491.855 279.933 499.855 283.8C507.855 287.667 513.921 293.067 518.055 300C522.188 306.8 524.255 314.733 524.255 323.8C524.255 332.733 522.188 340.667 518.055 347.6C513.921 354.4 507.855 359.733 499.855 363.6C491.855 367.467 481.855 369.4 469.855 369.4H440.055V343.2H467.455C471.988 343.2 475.855 342.533 479.055 341.2C482.388 339.733 484.921 337.667 486.655 335C488.388 332.2 489.255 328.867 489.255 325C489.255 321.133 488.388 317.867 486.655 315.2C484.921 312.4 482.388 310.267 479.055 308.8C475.855 307.333 471.988 306.6 467.455 306.6H440.055Z" fill="white"/>
</g>
<defs>
<filter id="filter0_d_1_2" x="167.253" y="272" width="375.402" height="160" filterUnits="userSpaceOnUse" color-interpolation-filters="sRGB">
<feFlood flood-opacity="0" result="BackgroundImageFix"/>
<feColorMatrix in="SourceAlpha" type="matrix" values="0 0 0 0 0 0 0 0 0 0 0 0 0 0 0 0 0 0 127 0" result="hardAlpha"/>
<feOffset dy="4"/>
<feGaussianBlur stdDeviation="5"/>
<feComposite in2="hardAlpha" operator="out"/>
<feColorMatrix type="matrix" values="0 0 0 0 0 0 0 0 0 0.11374 0 0 0 0 0.139423 0 0 0 0.9 0"/>
<feBlend mode="normal" in2="BackgroundImageFix" result="effect1_dropShadow_1_2"/>
<feBlend mode="normal" in="SourceGraphic" in2="effect1_dropShadow_1_2" result="shape"/>
</filter>
<linearGradient id="paint0_linear_1_2" x1="22" y1="22" x2="65272" y2="65272" gradientUnits="userSpaceOnUse">
<stop stop-color="#296775"/>
<stop offset="1" stop-color="white"/>
</linearGradient>
</defs>
</svg>
